<?xml version="1.0" encoding="UTF-8"?> <svg xmlns="http://www.w3.org/2000/svg" width="251" height="35" viewBox="0 0 251 35" fill="none"> <path d="M143.604 32.4027C142.641 32.4027 141.859 31.6268 141.859 30.6697V4.96147C141.859 4.00436 142.641 3.22852 143.604 3.22852C144.566 3.22852 145.348 4.00436 145.348 4.96147V30.6697C145.348 31.6268 144.566 32.4027 143.604 32.4027Z" fill="white"></path> <path d="M159.885 32.4028C158.921 32.4028 158.141 31.6318 158.141 30.6808V14.2867C158.141 13.3355 158.921 12.5645 159.885 12.5645C160.847 12.5645 161.628 13.3355 161.628 14.2867V30.6808C161.628 31.6318 160.847 32.4028 159.885 32.4028Z" fill="white"></path> <path d="M143.594 32.4027C143.258 32.4027 142.92 32.3058 142.621 32.1041C141.828 31.5662 141.621 30.4893 142.158 29.6968L159.616 3.98931C160.153 3.19685 161.233 2.99066 162.028 3.52653C162.82 4.06444 163.027 5.14209 162.49 5.93436L145.033 31.642C144.696 32.1364 144.151 32.4027 143.594 32.4027Z" fill="#3E6EFD"></path> <path d="M119.826 30.0687H112.167C111.227 30.0687 110.465 29.3327 110.465 28.4247C110.465 27.5167 111.227 26.7805 112.167 26.7805H119.826C125.61 26.7805 130.316 22.236 130.316 16.6491C130.316 11.0617 125.61 6.51648 119.826 6.51648H112.167C111.227 6.51648 110.465 5.78051 110.465 4.8725C110.465 3.96449 111.227 3.22852 112.167 3.22852H119.826C127.487 3.22852 133.721 9.24864 133.721 16.6491C133.721 24.0489 127.487 30.0687 119.826 30.0687Z" fill="white"></path> <path d="M120.389 30.0687H112.731C105.069 30.0687 98.8359 24.0489 98.8359 16.6491C98.8359 9.24864 105.069 3.22852 112.731 3.22852H120.389C121.33 3.22852 122.092 3.96449 122.092 4.8725C122.092 5.78051 121.33 6.51648 120.389 6.51648H112.731C106.946 6.51648 102.241 11.0617 102.241 16.6491C102.241 22.236 106.946 26.7805 112.731 26.7805H120.389C121.33 26.7805 122.092 27.5167 122.092 28.4247C122.092 29.3327 121.33 30.0687 120.389 30.0687Z" fill="white"></path> <path d="M114.83 34.7365C113.703 34.7365 112.789 33.9662 112.789 33.0159C112.789 30.8909 113.885 29.739 114.684 28.8985C115.328 28.2218 115.682 27.8495 115.682 26.9332C115.682 26.0176 115.328 25.6445 114.684 24.9686C113.885 24.1281 112.789 22.9763 112.789 20.8512C112.789 18.7267 113.885 17.5754 114.685 16.7352C115.328 16.0599 115.682 15.688 115.682 14.7731C115.682 13.8588 115.328 13.4858 114.685 12.8104C113.885 11.9701 112.789 10.8182 112.789 8.69302C112.789 6.56873 113.885 5.41742 114.685 4.57716C115.328 3.90173 115.682 3.52941 115.682 2.61512C115.682 1.66484 116.596 0.894531 117.724 0.894531C118.852 0.894531 119.766 1.66484 119.766 2.61512C119.766 4.73941 118.669 5.89072 117.869 6.73098C117.226 7.40641 116.872 7.77873 116.872 8.69302C116.872 9.60805 117.226 9.98111 117.869 10.6565C118.671 11.4968 119.766 12.6487 119.766 14.7731C119.766 16.8974 118.669 18.0487 117.869 18.889C117.226 19.5644 116.872 19.9369 116.872 20.8512C116.872 21.7675 117.226 22.1399 117.871 22.8158C118.671 23.6563 119.766 24.8081 119.766 26.9332C119.766 29.059 118.671 30.2108 117.871 31.0511C117.226 31.728 116.872 32.1003 116.872 33.0159C116.872 33.9662 115.958 34.7365 114.83 34.7365Z" fill="#16D4F2"></path> <path d="M209.734 32.4025C209.539 32.4025 209.339 32.3639 209.145 32.2818C208.328 31.9353 207.929 30.9476 208.254 30.0752L217.856 4.30013C218.181 3.42829 219.106 3.00299 219.926 3.34873C220.743 3.69521 221.142 4.68279 220.819 5.55536L211.215 31.3302C210.967 31.9968 210.367 32.4025 209.734 32.4025Z" fill="white"></path> <path d="M210.069 26.5678C209.46 26.5678 208.882 26.1626 208.633 25.489L201.282 5.66116C200.952 4.76663 201.325 3.73863 202.119 3.36483C202.912 2.99084 203.824 3.41282 204.157 4.30736L211.505 24.1352C211.838 25.0297 211.463 26.0577 210.671 26.4317C210.473 26.5244 210.27 26.5678 210.069 26.5678Z" fill="white"></path> <path d="M248.264 25.4008C247.304 25.4008 246.529 24.6352 246.529 23.6907V10.5636L240.977 18.7202C240.655 19.1944 240.114 19.4787 239.535 19.4787C238.957 19.4787 238.416 19.1944 238.093 18.7202L232.542 10.5636V23.6907C232.542 24.6352 231.765 25.4008 230.805 25.4008C229.847 25.4008 229.07 24.6352 229.07 23.6907V4.9405C229.07 4.18792 229.569 3.52301 230.302 3.3039C231.031 3.08202 231.823 3.36168 232.249 3.98819L239.535 14.6968L246.823 3.98819C247.247 3.36242 248.039 3.08461 248.768 3.3039C249.501 3.52301 250.001 4.18792 250.001 4.9405V23.6907C250.001 24.6352 249.224 25.4008 248.264 25.4008Z" fill="white"></path> <path d="M248.264 31.2354H230.805C229.847 31.2354 229.07 30.4516 229.07 29.4849C229.07 28.518 229.847 27.7344 230.805 27.7344H248.264C249.224 27.7344 250.001 28.518 250.001 29.4849C250.001 30.4516 249.224 31.2354 248.264 31.2354Z" fill="#CDE434"></path> <path d="M190.174 32.4027C189.467 32.4027 188.81 31.9508 188.574 31.2373L181.707 10.3292L176.538 26.058C176.245 26.9487 175.291 27.4303 174.41 27.1368C173.526 26.8414 173.048 25.879 173.339 24.9883L180.107 4.39311C180.335 3.69775 180.98 3.22852 181.707 3.22852C182.432 3.22852 183.077 3.69775 183.306 4.39311L191.773 30.1682C192.065 31.0588 191.586 32.0205 190.704 32.3159C190.529 32.3748 190.35 32.4027 190.174 32.4027Z" fill="white"></path> <path d="M172.674 31.2353C172.216 31.2353 171.766 31.0478 171.439 30.7188C171.116 30.3904 170.93 29.9356 170.93 29.4734C170.93 29.0112 171.116 28.5556 171.439 28.2274C172.089 27.57 173.257 27.57 173.907 28.2274C174.232 28.5556 174.418 29.0112 174.418 29.4734C174.418 29.9356 174.232 30.3904 173.907 30.7188C173.582 31.0478 173.132 31.2353 172.674 31.2353Z" fill="#F5259E"></path> <path d="M73.1345 33.5695C67.9687 33.5695 63.2267 30.5283 60.7587 25.6314C60.3348 24.7901 60.6235 23.7377 61.4047 23.2799C62.1854 22.823 63.1617 23.1348 63.5859 23.9764C65.4896 27.7555 69.1488 30.1024 73.1345 30.1024C79.1212 30.1024 83.9917 24.8521 83.9917 18.3989C83.9917 11.9459 79.1212 6.69572 73.1345 6.69572C69.0716 6.69572 65.3801 9.10982 63.5 12.9957C63.0895 13.8444 62.1182 14.1749 61.3302 13.7309C60.5421 13.2884 60.2368 12.2407 60.6473 11.3919C63.0842 6.35607 67.8688 3.22852 73.1345 3.22852C80.8955 3.22852 87.2089 10.0343 87.2089 18.3989C87.2089 26.7645 80.8955 33.5695 73.1345 33.5695Z" fill="white"></path> <path d="M61.0503 19.5664C60.5917 19.5664 60.1399 19.3788 59.8142 19.0499C59.4888 18.7217 59.3027 18.2666 59.3027 17.8044C59.3027 17.3356 59.4888 16.8866 59.8142 16.5584C60.4588 15.9011 61.6349 15.9011 62.2861 16.5584C62.6049 16.8866 62.791 17.3356 62.791 17.8044C62.791 18.2666 62.6049 18.7217 62.2861 19.0499C61.9539 19.3788 61.5086 19.5664 61.0503 19.5664Z" fill="#CDE434"></path> <path d="M31.98 31.2353C31.515 31.2353 31.0697 31.0478 30.7441 30.7188C30.4185 30.3904 30.2324 29.9356 30.2324 29.4734C30.2324 29.0112 30.4185 28.5556 30.7375 28.2274C31.3952 27.57 32.5581 27.57 33.2158 28.2274C33.5348 28.5556 33.7209 29.0112 33.7209 29.4734C33.7209 29.9356 33.5348 30.3904 33.2092 30.7188C32.8902 31.0478 32.4383 31.2353 31.98 31.2353Z" fill="white"></path> <path d="M41.1237 23.0669H37.6593C36.7688 23.0669 36.0469 22.2602 36.0469 21.2651C36.0469 20.2699 36.7688 19.4633 37.6593 19.4633H41.1237C44.2404 19.4633 46.7752 16.6292 46.7752 13.1469C46.7752 9.66471 44.2404 6.83213 41.1237 6.83213H37.6593C36.7688 6.83213 36.0469 6.02546 36.0469 5.03032C36.0469 4.03445 36.7688 3.22852 37.6593 3.22852H41.1237C46.0184 3.22852 50.0004 7.67775 50.0004 13.1469C50.0004 18.6175 46.0184 23.0669 41.1237 23.0669Z" fill="white"></path> <path d="M31.9766 26.5677C31.0132 26.5677 30.2324 25.7891 30.2324 24.8283V4.96793C30.2324 4.00658 31.0132 3.22852 31.9766 3.22852C32.94 3.22852 33.7209 4.00658 33.7209 4.96793V24.8283C33.7209 25.7891 32.94 26.5677 31.9766 26.5677Z" fill="white"></path> <path d="M20.3497 32.4027C19.3863 32.4027 18.6055 31.6268 18.6055 30.6697V4.96147C18.6055 4.00436 19.3863 3.22852 20.3497 3.22852C21.3131 3.22852 22.0939 4.00436 22.0939 4.96147V30.6697C22.0939 31.6268 21.3131 32.4027 20.3497 32.4027Z" fill="white"></path> <path d="M1.74421 32.4027C0.780825 32.4027 0 31.6268 0 30.6697V4.96147C0 4.00436 0.780825 3.22852 1.74421 3.22852C2.70742 3.22852 3.48843 4.00436 3.48843 4.96147V30.6697C3.48843 31.6268 2.70742 32.4027 1.74421 32.4027Z" fill="white"></path> <path d="M8.5301 6.72932C7.67322 6.72932 6.97823 5.95034 6.97657 4.98824C6.97472 4.02466 7.66916 3.24162 8.52715 3.24033L14.7223 3.22852H14.7248C15.5821 3.22852 16.2771 4.00676 16.2789 4.96959C16.28 5.93298 15.5858 6.71529 14.7276 6.71676L8.53305 6.72932H8.5301Z" fill="#F5259E"></path> </svg> 